<?xml version="1.0" encoding="UTF-8"?>
<svg width="277px" height="598px" viewBox="0 0 277 598" version="1.1" xmlns="http://www.w3.org/2000/svg" xmlns:xlink="http://www.w3.org/1999/xlink">
    <!-- Generator: Sketch 52.6 (67491) - http://www.bohemiancoding.com/sketch -->
    <title>XMLID_359_</title>
    <desc>Created with Sketch.</desc>
    <g id="Page-1" stroke="none" stroke-width="1" fill="none" fill-rule="evenodd">
        <path d="M248.718382,0.43360608 L223.552784,0.43360608 C218.166463,0.43360608 216.223856,0.168705052 215.870654,6.96783143 C215.517453,14.0318588 210.660934,18.446876 204.126709,20.4777838 C201.9192,21.1841866 199.446791,21.5373879 197.062681,21.5373879 L192.294463,21.5373879 L85.5393487,21.5373879 L80.7711302,21.5373879 C78.387021,21.5373879 75.9146114,21.0958862 73.7071028,20.3894835 C67.1728775,18.3585756 62.2280583,13.9435585 61.9631572,6.87953108 C61.6099559,0.0804047098 59.6673483,0.345305737 54.2810274,0.345305737 L28.8505288,0.345305737 C13.3979689,0.43360608 0.682719547,12.265852 0.682719547,27.6301116 L0.682719547,569.176112 C0.682719547,584.628672 13.3979689,597.343921 28.8505288,597.343921 L248.718382,597.343921 C264.170942,597.343921 276.179788,584.628672 276.179788,569.176112 L276.179788,27.6301116 C276.179788,12.265852 264.082641,0.43360608 248.718382,0.43360608 Z" id="XMLID_359_" fill="#FFFFFF"></path>
    </g>
</svg>