<?xml version="1.0" encoding="UTF-8"?>
<svg width="260px" height="525px" viewBox="0 0 260 525" version="1.1" xmlns="http://www.w3.org/2000/svg" xmlns:xlink="http://www.w3.org/1999/xlink">
    <!-- Generator: Sketch 53.1 (72631) - https://sketchapp.com -->
    <title>XMLID_354_</title>
    <desc>Created with Sketch.</desc>
    <g id="Page-1" stroke="none" stroke-width="1" fill="none" fill-rule="evenodd">
        <path d="M260,37.7298051 L260,486.538997 C260,507.597494 242.912181,525 221.699717,525 L38.5212465,525 C17.3087819,525 0,507.597494 0,486.538997 L0,106.681755 L0,37.7298051 C0,16.744429 17.3087819,5.19547266e-15 38.5212465,0 L221.699717,0 C242.912181,0 260,16.6713092 260,37.7298051 Z M246.458333,484.892359 L246.310764,484.892359 L246.310764,36.7865182 C246.310764,24.0732595 236.276042,14.2825888 223.363715,14.2825888 L202.33507,14.2825888 C197.834201,14.2825888 196.210938,14.1364595 195.915799,19.7624418 C195.694444,25.6076183 191.5625,29.1147241 186.10243,30.7952124 C184.257812,31.37973 182.19184,31.8181183 180.199653,31.8181183 L176.215278,31.8181183 L87.1571181,31.8181183 L83.1727431,31.8181183 C81.1805556,31.8181183 79.1145833,31.5258595 77.2699653,30.9413419 C71.8098958,29.2608536 67.7517361,25.4614889 67.4565972,19.6163124 C67.1614583,13.9903301 65.5381945,14.2825888 61.0373264,14.2825888 L39.7873264,14.2825888 C26.875,14.2825888 16.25,24.0732595 16.25,36.7865182 L16.25,484.892359 C16.25,497.678682 26.875,508.200001 39.7873264,508.200001 L223.511285,508.200001 C236.349826,508.200001 246.458333,497.678682 246.458333,484.892359 Z" id="XMLID_354_" fill="#000000" fill-rule="nonzero"></path>
    </g>
</svg>