<?xml version="1.0" encoding="UTF-8"?>
<svg width="351px" height="759px" viewBox="0 0 351 759" version="1.1" xmlns="http://www.w3.org/2000/svg" xmlns:xlink="http://www.w3.org/1999/xlink">
    <!-- Generator: Sketch 52.6 (67491) - http://www.bohemiancoding.com/sketch -->
    <title>XMLID_359_</title>
    <desc>Created with Sketch.</desc>
    <g id="Page-1" stroke="none" stroke-width="1" fill="none" fill-rule="evenodd">
        <path d="M315.794899,0.457859582 L283.823745,0.457859582 C276.980796,0.457859582 274.512848,0.12132112 274.06413,8.75914163 C273.615412,17.7335006 267.44554,23.342475 259.144258,25.9226032 C256.339771,26.8200391 253.198745,27.268757 250.169899,27.268757 L244.112207,27.268757 L108.487207,27.268757 L102.429514,27.268757 C99.4006683,27.268757 96.2596426,26.7078596 93.4551554,25.8104237 C85.1538734,23.2302955 78.8718221,17.6213211 78.5352836,8.64696215 C78.0865657,0.00914163313 75.618617,0.345680095 68.7756683,0.345680095 L36.467976,0.345680095 C16.8365657,0.457859582 0.682719547,15.4899109 0.682719547,35.0091416 L0.682719547,723.005937 C0.682719547,742.637347 16.8365657,758.791193 36.467976,758.791193 L315.794899,758.791193 C335.426309,758.791193 350.68272,742.637347 350.68272,723.005937 L350.68272,35.0091416 C350.68272,15.4899109 335.31413,0.457859582 315.794899,0.457859582 Z" id="XMLID_359_" fill="#FFFFFF"></path>
    </g>
</svg>